PathFileType	4	(X/Y/Z)	c:\Git\powerlifing_model_clean\simulations\HC835B\Session1\HC835B_CUT_0001\marker_experimental.trc
DataRate	CameraRate	NumFrames	NumMarkers	Units	OrigDataRate	OrigDataStartFrame	OrigNumFrames
240.000000	240.000000	4	38	mm	240.000000	65	75
Frame#	Time	RPSI			LPSI			RASI			LASI			RTH1			RTH2			RTH3			RTH4			RSK1			RSK2			RSK3			RSK4			RCAL1			RCAL2			RCAL3			RST			RPT			RTN			RFMB			RSMB			RVMB			RFMH			RSMH			RVMH			RPM			LTH1			LTH2			LTH3			LTH4			LSK1			LSK2			LSK3			LSK4			LCAL1			LCAL2			LCAL3			LFMH			LVMH			
		X1	Y1	Z1	X2	Y2	Z2	X3	Y3	Z3	X4	Y4	Z4	X5	Y5	Z5	X6	Y6	Z6	X7	Y7	Z7	X8	Y8	Z8	X9	Y9	Z9	X10	Y10	Z10	X11	Y11	Z11	X12	Y12	Z12	X13	Y13	Z13	X14	Y14	Z14	X15	Y15	Z15	X16	Y16	Z16	X17	Y17	Z17	X18	Y18	Z18	X19	Y19	Z19	X20	Y20	Z20	X21	Y21	Z21	X22	Y22	Z22	X23	Y23	Z23	X24	Y24	Z24	X25	Y25	Z25	X26	Y26	Z26	X27	Y27	Z27	X28	Y28	Z28	X29	Y29	Z29	X30	Y30	Z30	X31	Y31	Z31	X32	Y32	Z32	X33	Y33	Z33	X34	Y34	Z34	X35	Y35	Z35	X36	Y36	Z36	X37	Y37	Z37	X38	Y38	Z38	

66	0.2708333333333333	127.149658203125	1092.715698242188	-940.9879150390627	42.94961547851563	1049.025024414063	-895.904724121094	95.71920776367189	1041.768188476563	-1152.029296875	-105.8970336914063	1008.702697753906	-1043.462280273438	313.3187866210938	827.914245605469	-1121.463500976563	288.6358032226563	800.868347167969	-1169.769653320313	335.5127868652344	747.6654663085939	-1136.243896484375	305.3842163085938	717.5466308593751	-1176.389282226563	558.6171875000001	442.1287231445314	-909.9695434570315	563.5209350585939	392.9658203125001	-947.4564208984377	585.1506347656251	393.6159973144532	-890.2720336914065	580.0625000000001	342.7588806152344	-921.8093872070315	632.7742919921876	320.9814758300782	-754.7708129882814	601.6990966796876	296.1202697753907	-724.3442993164064	666.4556884765626	292.2854309082032	-734.5863647460939	577.0895996093751	249.3908233642579	-778.1682739257815	680.9324340820314	251.4679718017579	-782.7615356445315	581.5280151367189	219.7274017333985	-827.082702636719	581.9545288085939	184.7338104248047	-835.964294433594	625.7488403320314	189.752685546875	-868.1463012695315	685.5989379882814	198.9743804931641	-790.665222167969	569.2156372070314	130.390365600586	-847.263366699219	621.8340454101564	120.0747222900391	-873.665222167969	689.1409301757814	129.0623016357422	-830.4116210937502	601.7005615234376	74.76396942138673	-902.640808105469	-74.08281707763673	701.9312133789064	-1098.836059570313	-102.2787399291992	722.1262207031251	-1148.35009765625	-71.22678375244142	648.3838500976564	-1165.52392578125	-84.90095520019533	675.5967407226564	-1218.668823242188	123.0702743530274	284.8780212402344	-1351.458740234375	90.90012359619142	272.5641479492188	-1392.94970703125	132.4282989501953	244.0795135498047	-1388.805297851563	105.7196273803711	241.2056884765626	-1439.443115234375	254.6727294921876	146.2665100097657	-1441.976928710938	251.6032409667969	98.9055099487305	-1449.264282226563	288.7799072265626	137.1045532226563	-1474.138549804688	160.6730041503907	166.3479156494141	-1652.963012695313	0	0	0	
67	0.275	118.5971221923828	1092.336547851563	-957.384460449219	35.19704818725587	1048.1826171875	-912.9087524414065	90.1499481201172	1042.708129882813	-1168.875366210938	-110.8507308959961	1006.932800292969	-1061.850830078125	308.7293090820313	827.670837402344	-1137.949462890625	284.7297973632813	801.207458496094	-1186.9208984375	331.2806396484376	747.6962890625001	-1153.567260742188	301.8946838378907	718.0965576171876	-1194.539306640625	553.9174804687501	449.8003540039064	-923.490173339844	560.2832641601564	399.8815307617189	-959.7114257812502	581.0379638671876	402.272674560547	-902.2670898437502	577.2857055664064	350.6022644042969	-932.6097412109377	627.5587768554689	333.0838928222657	-763.9948120117189	596.5841674804689	307.3823547363282	-733.6420898437501	661.6690063476564	305.4041442871094	-743.0031738281251	574.3519897460939	261.0382080078126	-786.5147705078127	677.9578247070314	264.8346862792969	-790.7537841796877	579.8712768554689	229.6914367675782	-835.9987792968752	581.5850219726564	194.7009429931641	-844.7349853515627	625.5253295898439	201.1157684326172	-876.5422363281252	684.1926269531251	212.4993743896485	-798.3386230468752	570.9835205078126	140.0462036132813	-856.0496215820315	623.8895263671876	131.13818359375	-881.4566040039065	690.4373168945314	142.5326232910157	-837.685485839844	605.5639648437501	84.94016265869142	-910.502136230469	-77.5877151489258	698.3613281250001	-1116.931274414063	-104.0447845458985	718.5985717773439	-1167.363891601563	-73.12342834472658	644.7531738281251	-1183.2685546875	-84.97798919677736	672.1895751953126	-1236.842529296875	118.5842895507813	281.6943359375001	-1373.077514648438	86.2100296020508	270.5358886718751	-1414.875610351563	125.8970336914063	243.7959899902344	-1406.107055664063	100.5487365722657	239.8387451171876	-1461.936767578125	248.4904479980469	143.1515197753907	-1466.871948242188	245.3110351562501	95.94911956787111	-1474.757446289063	282.2912902832032	134.5076141357422	-1499.524169921875	152.1783447265625	166.3511810302735	-1676.526489257813	0	0	0	
68	0.2791666666666667	109.9815216064453	1091.7255859375	-973.9426269531252	27.39032173156739	1047.050659179688	-929.8791503906252	84.58896636962892	1043.4462890625	-1185.637329101563	-115.8347702026367	1004.810241699219	-1080.1181640625	304.1164550781251	827.1448364257815	-1154.666381835938	280.6647033691407	801.458435058594	-1203.911254882813	327.0820312500001	747.5029296875001	-1171.228515625	298.1629333496094	718.4702758789064	-1212.980834960938	548.4846801757814	457.4423828125001	-937.314147949219	556.8355102539064	407.1030578613282	-972.4025878906252	576.5545654296876	411.1953735351564	-914.6123046875002	574.3045043945314	358.7651672363282	-943.868591308594	621.6211547851564	345.3859252929688	-773.555358886719	591.2226562500001	319.1104125976563	-743.4197998046876	656.4322509765626	319.1371459960938	-752.0136718750001	570.9301147460939	271.6343383789063	-796.1961669921877	674.4448852539064	278.6564331054688	-799.2901000976565	577.9756469726564	239.9603729248047	-845.4920654296877	580.8672485351564	205.0477142333985	-853.8276977539065	624.9850463867189	212.6364440917969	-885.3052978515627	682.3321533203126	226.4727783203126	-806.4326171875002	572.6798095703126	149.8868408203125	-864.781921386719	625.7546386718751	142.6621856689453	-889.9307861328127	691.5086669921876	156.6228179931641	-845.2827758789065	609.5052490234376	95.50415802001955	-918.4415283203127	-81.14709472656251	694.4102783203126	-1134.921752929688	-105.8815460205078	714.8319091796876	-1186.176513671875	-75.09536743164064	640.7688598632814	-1201.159423828125	-85.22279357910158	668.2806396484376	-1255.021728515625	114.5382385253907	278.7792663574219	-1394.191040039063	80.45021820068361	268.5753479003907	-1433.683959960938	121.1392364501953	240.7575378417969	-1428.1640625	95.52315521240236	238.6979522705079	-1483.522827148438	242.5050659179688	140.0603332519532	-1490.100708007813	238.8913726806641	92.77864074707033	-1498.534790039063	275.9361877441407	131.5662536621094	-1523.156860351563	144.6878509521485	165.7957916259766	-1698.99267578125	108.8761215209961	76.4501419067383	-1645.058227539063	
69	0.2833333333333333	101.3321914672852	1090.838989257813	-990.6346435546877	19.491605758667	1045.732299804688	-946.7283325195315	79.06623840332033	1044.067626953125	-1202.3818359375	-120.7552337646485	1002.239013671875	-1098.355590820313	299.5986633300782	826.489196777344	-1171.623413085938	276.4009704589844	801.4653320312502	-1221.407592773438	322.7533874511719	747.1446533203126	-1189.236938476563	294.2609252929688	718.7125854492189	-1231.6552734375	542.9210205078126	465.3369445800782	-951.524841308594	553.2493286132814	414.6044921875001	-985.4412231445315	572.1901245117189	420.5803222656251	-927.5128173828127	571.1108398437501	367.1784667968751	-955.5730590820315	615.1438598632814	357.9076843261719	-783.8181762695315	585.6796875000001	331.0143432617188	-753.7042846679689	650.6284790039064	333.0179138183594	-761.5983276367189	567.2682495117189	282.1423339843751	-806.3803710937502	670.4102172851564	292.8268737792969	-808.3628540039065	575.7749633789064	250.6384429931641	-855.250427246094	579.9515380859376	215.6482543945313	-863.465515136719	624.0003662109376	224.4734039306641	-894.5161132812502	680.0278320312501	240.8836364746094	-815.030212402344	574.0346679687501	159.9710998535157	-873.8393554687502	627.3752441406251	154.4881134033203	-898.2287597656252	692.2020874023439	171.1559295654297	-853.3687744140627	613.2542114257814	106.3293762207032	-926.6142578125002	-84.80392456054689	690.2991333007814	-1152.675903320313	-107.9977035522461	710.9199829101564	-1204.7919921875	-77.19812774658205	636.5409545898439	-1219.0322265625	-85.76467895507814	664.1602783203126	-1273.134887695313	110.7903442382813	276.4818725585938	-1414.157104492188	75.81423950195314	266.6322631835938	-1453.687133789063	116.8265380859375	237.8627929687501	-1448.994018554688	90.81896209716798	236.6805419921876	-1503.788940429688	236.5663299560547	136.7850646972657	-1511.945190429688	232.6469268798829	89.69542694091798	-1520.559448242188	269.8727111816407	128.2268371582032	-1545.094604492188	138.3907165527344	164.6064605712891	-1720.389892578125	102.789047241211	76.2642059326172	-1666.933227539063	
